<mxfile host="app.diagrams.net" modified="2021-04-26T03:41:00.838Z" agent="5.0 (Windows NT 10.0; Win64; x64) AppleWebKit/537.36 (KHTML, like Gecko) Chrome/90.0.4430.85 Safari/537.36" etag="hhCpkWGFFfiLqun_jFcc" version="14.6.6" type="github">
  <diagram id="1mmt8xCyGl9wxiaScQVi" name="Page-1">
    <mxGraphModel dx="1422" dy="362" grid="0" gridSize="10" guides="1" tooltips="1" connect="1" arrows="1" fold="1" page="0" pageScale="1" pageWidth="827" pageHeight="1169" math="0" shadow="0">
      <root>
        <mxCell id="0" />
        <mxCell id="1" parent="0" />
        <mxCell id="FFUh_qGiznpqma361PZQ-4" value="t_fid" style="rounded=1;whiteSpace=wrap;html=1;fillColor=#ffe6cc;strokeColor=#d79b00;" parent="1" vertex="1">
          <mxGeometry x="60" y="680" width="120" height="60" as="geometry" />
        </mxCell>
        <mxCell id="FFUh_qGiznpqma361PZQ-5" value="t_user" style="rounded=1;whiteSpace=wrap;html=1;fillColor=#ffe6cc;strokeColor=#d79b00;" parent="1" vertex="1">
          <mxGeometry x="590" y="810" width="120" height="60" as="geometry" />
        </mxCell>
        <mxCell id="FFUh_qGiznpqma361PZQ-6" value="t_role" style="rounded=1;whiteSpace=wrap;html=1;fillColor=#ffe6cc;strokeColor=#d79b00;" parent="1" vertex="1">
          <mxGeometry x="590" y="515" width="120" height="60" as="geometry" />
        </mxCell>
        <mxCell id="FFUh_qGiznpqma361PZQ-22" style="edgeStyle=orthogonalEdgeStyle;rounded=0;orthogonalLoop=1;jettySize=auto;html=1;exitX=0.5;exitY=0;exitDx=0;exitDy=0;entryX=0.5;entryY=1;entryDx=0;entryDy=0;endArrow=none;endFill=0;" parent="1" source="NwzpREZafdLMRDNukC1V-4" target="FFUh_qGiznpqma361PZQ-6" edge="1">
          <mxGeometry relative="1" as="geometry">
            <mxPoint x="650" y="660" as="sourcePoint" />
          </mxGeometry>
        </mxCell>
        <mxCell id="FFUh_qGiznpqma361PZQ-25" value="N" style="edgeLabel;html=1;align=center;verticalAlign=middle;resizable=0;points=[];" parent="FFUh_qGiznpqma361PZQ-22" vertex="1" connectable="0">
          <mxGeometry x="0.2471" relative="1" as="geometry">
            <mxPoint as="offset" />
          </mxGeometry>
        </mxCell>
        <mxCell id="FFUh_qGiznpqma361PZQ-33" style="edgeStyle=orthogonalEdgeStyle;rounded=0;orthogonalLoop=1;jettySize=auto;html=1;exitX=0.5;exitY=0.95;exitDx=0;exitDy=0;entryX=0.5;entryY=0;entryDx=0;entryDy=0;exitPerimeter=0;endArrow=none;endFill=0;" parent="1" source="NwzpREZafdLMRDNukC1V-4" target="FFUh_qGiznpqma361PZQ-5" edge="1">
          <mxGeometry relative="1" as="geometry">
            <mxPoint x="650" y="720" as="sourcePoint" />
          </mxGeometry>
        </mxCell>
        <mxCell id="FFUh_qGiznpqma361PZQ-34" value="M" style="edgeLabel;html=1;align=center;verticalAlign=middle;resizable=0;points=[];" parent="FFUh_qGiznpqma361PZQ-33" vertex="1" connectable="0">
          <mxGeometry x="-0.2444" y="2" relative="1" as="geometry">
            <mxPoint as="offset" />
          </mxGeometry>
        </mxCell>
        <mxCell id="FFUh_qGiznpqma361PZQ-12" value="t_permission" style="rounded=1;whiteSpace=wrap;html=1;fillColor=#ffe6cc;strokeColor=#d79b00;" parent="1" vertex="1">
          <mxGeometry x="130" y="515" width="120" height="60" as="geometry" />
        </mxCell>
        <mxCell id="FFUh_qGiznpqma361PZQ-18" value="" style="edgeStyle=orthogonalEdgeStyle;rounded=0;orthogonalLoop=1;jettySize=auto;html=1;exitX=1;exitY=0.5;exitDx=0;exitDy=0;endArrow=none;endFill=0;" parent="1" source="NwzpREZafdLMRDNukC1V-2" target="FFUh_qGiznpqma361PZQ-6" edge="1">
          <mxGeometry relative="1" as="geometry">
            <mxPoint x="488" y="545" as="sourcePoint" />
          </mxGeometry>
        </mxCell>
        <mxCell id="FFUh_qGiznpqma361PZQ-20" value="N" style="edgeLabel;html=1;align=center;verticalAlign=middle;resizable=0;points=[];" parent="FFUh_qGiznpqma361PZQ-18" vertex="1" connectable="0">
          <mxGeometry x="-0.2241" y="3" relative="1" as="geometry">
            <mxPoint as="offset" />
          </mxGeometry>
        </mxCell>
        <mxCell id="FFUh_qGiznpqma361PZQ-29" value="t_menu_item" style="rounded=1;whiteSpace=wrap;html=1;fillColor=#ffe6cc;strokeColor=#d79b00;" parent="1" vertex="1">
          <mxGeometry x="354" y="680" width="120" height="60" as="geometry" />
        </mxCell>
        <mxCell id="FFUh_qGiznpqma361PZQ-30" value="" style="endArrow=none;startArrow=none;html=1;entryX=0;entryY=0.5;entryDx=0;entryDy=0;exitX=1;exitY=0.5;exitDx=0;exitDy=0;endFill=0;startFill=0;" parent="1" source="FFUh_qGiznpqma361PZQ-4" target="FFUh_qGiznpqma361PZQ-29" edge="1">
          <mxGeometry width="50" height="50" relative="1" as="geometry">
            <mxPoint x="210" y="740" as="sourcePoint" />
            <mxPoint x="260" y="690" as="targetPoint" />
          </mxGeometry>
        </mxCell>
        <mxCell id="FFUh_qGiznpqma361PZQ-31" value="1:1" style="edgeLabel;html=1;align=center;verticalAlign=middle;resizable=0;points=[];" parent="FFUh_qGiznpqma361PZQ-30" vertex="1" connectable="0">
          <mxGeometry x="-0.175" relative="1" as="geometry">
            <mxPoint as="offset" />
          </mxGeometry>
        </mxCell>
        <object label="" id="NwzpREZafdLMRDNukC1V-6">
          <mxCell style="edgeStyle=orthogonalEdgeStyle;rounded=0;orthogonalLoop=1;jettySize=auto;html=1;exitX=0;exitY=0.5;exitDx=0;exitDy=0;entryX=1;entryY=0.5;entryDx=0;entryDy=0;endArrow=none;endFill=0;" edge="1" parent="1" source="NwzpREZafdLMRDNukC1V-2" target="FFUh_qGiznpqma361PZQ-12">
            <mxGeometry relative="1" as="geometry" />
          </mxCell>
        </object>
        <mxCell id="NwzpREZafdLMRDNukC1V-7" value="M" style="edgeLabel;html=1;align=center;verticalAlign=middle;resizable=0;points=[];" vertex="1" connectable="0" parent="NwzpREZafdLMRDNukC1V-6">
          <mxGeometry x="0.3208" y="1" relative="1" as="geometry">
            <mxPoint as="offset" />
          </mxGeometry>
        </mxCell>
        <mxCell id="NwzpREZafdLMRDNukC1V-2" value="t_role_permission" style="shape=rhombus;perimeter=rhombusPerimeter;whiteSpace=wrap;html=1;align=center;fillColor=#ffe6cc;strokeColor=#d79b00;" vertex="1" parent="1">
          <mxGeometry x="356" y="515" width="120" height="60" as="geometry" />
        </mxCell>
        <mxCell id="NwzpREZafdLMRDNukC1V-4" value="t_role_user" style="shape=rhombus;perimeter=rhombusPerimeter;whiteSpace=wrap;html=1;align=center;fillColor=#ffe6cc;strokeColor=#d79b00;" vertex="1" parent="1">
          <mxGeometry x="590" y="663" width="120" height="60" as="geometry" />
        </mxCell>
        <mxCell id="NwzpREZafdLMRDNukC1V-14" value="" style="endArrow=none;html=1;entryX=0.5;entryY=1;entryDx=0;entryDy=0;exitX=0.583;exitY=0.033;exitDx=0;exitDy=0;exitPerimeter=0;" edge="1" parent="1" source="FFUh_qGiznpqma361PZQ-4" target="FFUh_qGiznpqma361PZQ-12">
          <mxGeometry width="50" height="50" relative="1" as="geometry">
            <mxPoint x="141" y="654" as="sourcePoint" />
            <mxPoint x="191" y="604" as="targetPoint" />
          </mxGeometry>
        </mxCell>
        <mxCell id="NwzpREZafdLMRDNukC1V-15" value="1:1" style="edgeLabel;html=1;align=center;verticalAlign=middle;resizable=0;points=[];" vertex="1" connectable="0" parent="NwzpREZafdLMRDNukC1V-14">
          <mxGeometry x="0.3935" y="1" relative="1" as="geometry">
            <mxPoint x="-14" y="20" as="offset" />
          </mxGeometry>
        </mxCell>
      </root>
    </mxGraphModel>
  </diagram>
</mxfile>
